<?xml version="1.0" encoding="UTF-8" standalone="no"?>
<!DOCTYPE svg PUBLIC "-//W3C//DTD SVG 1.1//EN" "http://www.w3.org/Graphics/SVG/1.1/DTD/svg11.dtd">
<svg width="100%" height="100%" viewBox="0 0 1100 1000" version="1.1" xmlns="http://www.w3.org/2000/svg" xmlns:xlink="http://www.w3.org/1999/xlink" xml:space="preserve" xmlns:serif="http://www.serif.com/" style="fill-rule:evenodd;clip-rule:evenodd;stroke-linecap:round;stroke-linejoin:round;stroke-miterlimit:1.5;">
    <g transform="matrix(1.181751,0,0,1.181751,-3595.020995,-1919.430944)">
        <g transform="matrix(1,0,0,1,394.06148,14.460972)">
            <path d="M3335.481,1885.335L2959.545,2339.585L2837.81,2338.964L2686.815,2182.425L2686.194,2058.206L2791.47,2056.963L2893.64,2177.145L3265.158,1726.148L3391.979,1726.374L3540.734,1874.66L3539.278,2001.791L3433.013,2000.335L3335.481,1885.335Z" style="fill:rgb(26,31,36);stroke:rgb(26,31,36);stroke-width:3.53px;"/>
        </g>
        <g transform="matrix(-1,0,-0,-1,6625.246634,4080.194078)">
            <path d="M2690.452,1887.989L2690.469,1997.019L2794.932,1997.655L2897.725,1884.763L3093.696,1881.739L3224.47,1726.148L2840.046,1726.148L2690.452,1887.989Z" style="fill:rgb(196,106,45);stroke:rgb(196,106,45);stroke-width:3.53px;"/>
        </g>
        <g transform="matrix(1,-0,0,1,389.804235,14.460972)">
            <path d="M2690.452,1887.989L2690.469,1997.019L2794.932,1997.655L2897.725,1884.763L3093.696,1881.739L3224.47,1726.148L2840.046,1726.148L2690.452,1887.989Z" style="fill:rgb(196,106,45);stroke:rgb(196,106,45);stroke-width:3.53px;"/>
        </g>
    </g>
</svg>
